<?xml version="1.0" encoding="UTF-8"?> <svg xmlns="http://www.w3.org/2000/svg" xmlns:xlink="http://www.w3.org/1999/xlink" width="105" height="82" viewBox="0 0 105 82"><defs><polygon id="bc-logo-a" points=".582 .091 46.657 .091 46.657 24 .582 24"></polygon><linearGradient id="bc-logo-b" x1="77.447%" x2="-90.967%" y1="-4.106%" y2="58.413%"><stop offset="0%" stop-color="#68E0AB"></stop><stop offset="98.076%" stop-color="#3BC076"></stop><stop offset="100%" stop-color="#37BE72"></stop></linearGradient><linearGradient id="bc-logo-d" x1="77.447%" x2="-90.967%" y1="-26.094%" y2="61.832%"><stop offset="0%" stop-color="#68E0AB"></stop><stop offset="98.076%" stop-color="#3BC076"></stop><stop offset="100%" stop-color="#37BE72"></stop></linearGradient><polygon id="bc-logo-e" points="0 .355 103.818 .355 103.818 81.826 0 81.826"></polygon><linearGradient id="bc-logo-f" x1="77.447%" x2="-90.967%" y1="-73.742%" y2="69.24%"><stop offset="0%" stop-color="#68E0AB"></stop><stop offset="98.076%" stop-color="#3BC076"></stop><stop offset="100%" stop-color="#37BE72"></stop></linearGradient></defs><g fill="none" fill-rule="evenodd"><g transform="translate(58 58)"><mask id="bc-logo-c" fill="#fff"><use xlink:href="#bc-logo-a"></use></mask><path fill="url(#bc-logo-b)" d="M35.1332833,3.6516878 L34.8723731,3.90924878 C33.2918474,5.43412683 31.4052192,6.62593171 29.3299885,7.41090732 L29.2251423,7.40505366 C27.3162192,8.11276098 25.2891936,8.47100488 23.2452962,8.46222439 C20.2571808,8.49090732 17.3022064,7.84524878 14.6141679,6.57500488 L14.4508731,6.56622439 L14.0543859,6.36134634 L13.9411038,6.29812683 C11.4488987,4.97110244 9.41162949,2.96446829 8.08056538,0.52524878 L7.82568077,0.0909073171 L2.25557821,5.80524878 C2.25557821,5.80524878 1.1058859,11.3053463 0.59370641,14.0021268 L0.582257692,14.1830049 L0.714821795,14.3158829 L0.791347436,14.3995902 C6.36627051,20.4224195 14.2917962,23.8901268 22.6294756,23.9539317 L23.0717577,23.9791024 L23.4332962,23.9990049 C28.8895141,24.0358829 34.2661936,22.7270049 39.0601936,20.1958829 L39.204809,20.1244683 C41.8452449,18.7049561 44.2657449,16.9307122 46.395809,14.8538341 L46.6573218,14.5962732 L35.1332833,3.6516878 Z" mask="url(#bc-logo-c)"></path></g><path fill="url(#bc-logo-d)" d="M16.2066552,33.7613776 L16.2006303,33.8650017 L18.3961162,42.2079309 L18.8588312,41.4950687 C21.3073643,38.0308086 25.0319785,35.6534103 29.2343699,34.8726565 L29.4205404,34.8833762 C30.8960467,34.5951345 32.4022802,34.492106 33.9042962,34.5760772 C36.1636465,34.7416375 38.3597349,35.393159 40.3377207,36.4847851 L40.4961765,36.5747117 C43.2236641,38.1177576 45.6300227,40.1586755 47.5869213,42.5890769 L47.9020253,43 L53.2437318,35.6939071 L55,27.9375854 L54.8210595,27.8000155 L54.2203735,27.2801085 C50.7891737,24.102899 46.7054734,21.6951281 42.2464198,20.2211649 C39.8448811,19.4809079 37.351161,19.072367 34.8363535,19.007453 L34.7200723,19.0003065 C29.0542244,18.9764849 23.4709181,20.3414641 18.4696204,22.9725628 L18.3129721,23.0559385 L16,32.9055856 L16.2066552,33.7613776 Z"></path><mask id="bc-logo-g" fill="#fff"><use xlink:href="#bc-logo-e"></use></mask><path fill="url(#bc-logo-f)" d="M64.8587383,55.2327043 L64.8676526,55.0835594 C64.9027154,54.4745014 64.7892069,52.0810522 64.7672183,50.6846754 L64.7886126,50.3168638 C64.7380983,46.6209217 65.9807497,43.0236174 68.3008411,40.1458928 L68.3757211,40.0466609 C68.7114926,39.6277478 69.0686583,39.2337913 69.4495954,38.8410232 C72.4727269,35.774342 76.6065783,34.0576899 80.9127726,34.0808638 C81.6003611,34.0802696 82.2867611,34.1206754 82.9701897,34.2008928 L83.0848869,34.207429 C86.6196983,34.7024 89.8989669,36.3299217 92.430624,38.8469652 L92.6915154,39.1155449 L103.817733,28.0865449 L103.556247,27.8179652 C98.0222583,22.3637768 90.7155154,19.0736754 82.962464,18.5436464 L82.8477669,18.5371101 C82.1578011,18.4967043 81.4571383,18.4557043 80.7564754,18.4147043 C76.0990583,18.3356754 71.4737326,19.1907333 67.1526811,20.9287768 C64.2953554,22.1118348 61.6680183,23.7886754 59.3913097,25.8820522 L59.2694811,25.9901971 L59.1310126,25.9818783 L59.1268526,26.0514 L59.042464,26.1268638 L58.9206354,26.2350087 C58.1320183,26.9991536 57.3945097,27.8149942 56.7140526,28.6771826 L56.7098926,28.7461101 L54.8723611,36.5016464 L48.9235611,44.5703275 L48.8801783,50.2402116 C48.7827154,56.505487 45.1159726,62.1646754 39.4381669,64.8148203 L39.3311954,64.8665159 C37.2583269,65.783371 35.014304,66.2498203 32.7476983,66.2337768 C23.8126126,66.2355594 16.5177554,59.091458 16.3335269,50.1594 L16.2960869,44.8769362 L16.3162926,44.5322986 L13.5213669,33.1735159 L16.0607497,22.6691971 L15.932384,6.12837101 L0.000178285714,0.355095652 L0.317526857,36.9330377 L0.308018286,37.0940667 L0.411424,50.1166174 C0.385869714,50.5533565 0.440544,51.0061391 0.460749714,51.4452551 C0.450646857,51.5254725 0.445892571,51.6062841 0.446486857,51.6870957 C1.00570971,60.6268783 5.31071543,68.9166029 12.3030811,74.516371 L12.4136183,74.6031246 C18.191264,79.2592986 25.383904,81.8066464 32.8047497,81.8256609 L33.9582583,81.8114 L34.2001326,81.8256609 C42.3537326,81.5992696 49.1006583,79.0186464 54.3428526,74.1604435 L54.4403154,74.0736899 C55.1968411,73.3570812 55.9212754,72.6036319 56.6142126,71.8026464 L56.6760183,71.7254 L58.4660069,62.6067623 L64.8367497,55.4157188 L64.8587383,55.2327043 Z" mask="url(#bc-logo-g)"></path></g></svg> 