<svg xmlns="http://www.w3.org/2000/svg" xmlns:xlink="http://www.w3.org/1999/xlink" viewBox="0 0 78.9 85.1"><path fill="#000000" d="M39.5 85.1h-.1C26.5 84 12.8 74.7 5.2 62.1-.1 53.1 0 41.6 0 34.8V0h78.9v34.7c0 6.9.1 18.4-5.3 27.3-7.5 12.6-21.2 21.9-34 23l-.1.1zM2.5 2.5v32.3c0 6.6-.1 17.6 4.8 26 7.1 12 20 20.7 32.1 21.8 12.1-1.1 24.9-9.8 32-21.8 5.1-8.3 5-19.4 4.9-26V2.5H2.5z"/><defs><path id="a" d="M62.8 47.7c-.4 2.2-7.7 17.7-21.8 20.2-5.7 1-6.5 2.6-5.1 4.1 1.2.3 2.4.5 3.6.6 9.2-.8 18.7-7.5 24-16.4 1.3-2.3 2.2-4.8 2.7-7.3-.9-1.1-1.9-2.1-2.6-2.1-.4 0-.6.2-.8.9"/></defs><use xlink:href="#a" overflow="visible" fill="#000000"/><clipPath id="b"><use xlink:href="#a" overflow="visible"/></clipPath><path clip-path="url(#b)" fill="#000000" d="M34.5 46.8h31.6v25.9H34.5z"/><defs><path id="c" d="M18.6 12.1h44v4.5h-44z"/></defs><use xlink:href="#c" overflow="visible" fill="#000000"/><clipPath id="d"><use xlink:href="#c" overflow="visible"/></clipPath><path clip-path="url(#d)" fill="#000000" d="M18.6 12.1h44v4.5h-44z"/><g><defs><path id="e" d="M11.8 12.1v16.5L58 63.2c2.1-2.1 3.9-4.4 5.4-7 2.1-3.5 3-7.6 3.4-11.4L23 12.1H11.8z"/></defs><use xlink:href="#e" overflow="visible" fill="#000000"/><clipPath id="f"><use xlink:href="#e" overflow="visible"/></clipPath><path clip-path="url(#f)" fill="#000000" d="M11.8 12.1h54.9v51.1H11.8z"/></g><g><defs><path id="g" d="M29.9 12.1L67 39.9V12H29.9v.1z"/></defs><use xlink:href="#g" overflow="visible" fill="#000000"/><clipPath id="h"><use xlink:href="#g" overflow="visible"/></clipPath><path clip-path="url(#h)" fill="#000000" d="M29.9 12.1h37.2v27.8H29.9z"/></g><g><defs><path id="i" d="M11.8 35.4c0 4.8-.4 13.9 3.7 20.8 5.2 8.9 14.7 15.6 24 16.4 5.3-.5 10.7-2.9 15.3-6.5L11.8 34v1.4z"/></defs><use xlink:href="#i" overflow="visible" fill="#000000"/><clipPath id="j"><use xlink:href="#i" overflow="visible"/></clipPath><path clip-path="url(#j)" fill="#000000" d="M11.4 34h43.3v38.7H11.4z"/></g></svg>